<?xml version="1.0" encoding="utf-8"?>
<!-- Generator: Adobe Illustrator 19.2.1, SVG Export Plug-In . SVG Version: 6.00 Build 0)  -->
<svg version="1.1" id="Layer_1" xmlns="http://www.w3.org/2000/svg" xmlns:xlink="http://www.w3.org/1999/xlink" x="0px" y="0px"
	 viewBox="0 0 1152 432" style="enable-background:new 0 0 1152 432;" xml:space="preserve">
<style type="text/css">
	.st0{fill:#CCC1C4;}
	.st1{fill:#A8268D;}
</style>
<g>
	<path class="st0" d="M1064.8,77.2H888.4c-10.9,0-19.7,8.9-19.7,19.8c0,0,1.1,7.4,2.5,39c2.3-0.4,4.7-0.1,7.2,1c2,0.9,3.7,2,5.1,3.3
		l-2.3-43.9c0.3-3.7,3.4-6.7,7.2-6.7h176.4c4,0,7.2,3.2,7.2,7.2v211.2c0,4-3.2,7.2-7.2,7.2H925.4c0.3,4.2,0.4,8.3,0.1,12.5h139.3
		c10.9,0,19.7-8.9,19.7-19.7V96.9C1084.5,86,1075.7,77.2,1064.8,77.2z M999.8,87.1h-46.3c-1.8,0-3.2-1.6-3.2-3.6
		c0-2,1.4-3.6,3.2-3.6h46.3c1.8,0,3.2,1.6,3.2,3.6C1003,85.5,1001.5,87.1,999.8,87.1z M976.3,325.3c-2,0-3.7-1.7-3.7-3.7
		c0-2,1.7-3.7,3.7-3.7c2,0,3.7,1.7,3.7,3.7C980,323.6,978.3,325.3,976.3,325.3z"/>
	<path class="st1" d="M917.9,314v8.3c0,6.1-4.9,11-11,11H609.7c-6.1,0-11-4.9-11-11V311H586v11.2c0,13,10.6,23.6,23.6,23.6h297.3
		c13.1,0,23.6-10.6,23.6-23.6V314H917.9z"/>
	<path class="st0" d="M598.7,110.1c0-5.8,4.5-10.5,10.2-11l297.1,47.2h1c6.1,0,11,4.9,11,11v15h12.6v-15c0-13-10.6-23.6-23.6-23.6
		L609.7,86.4c-13.1,0-23.6,10.6-23.6,23.6v64.3h12.6V110.1z"/>
	<g>
		<path class="st1" d="M93.6,360.3h-4.6L81.6,323h-0.1l-7.9,37.2h-4.6l8.6-40.7h8l7,34.9l21.8-34.9h8l-8.6,40.7h-4.6L117,323h-0.1
			L93.6,360.3z"/>
		<path class="st1" d="M187.9,319.2c2.5,0,4.6,0.3,6.2,0.8c1.6,0.5,2.8,1.2,3.6,2.3c0.8,1.1,1.2,2.5,1.3,4.2s-0.2,3.9-0.7,6.4
			l-3.1,14.5c-0.5,2.4-1.2,4.4-2,6.1c-0.8,1.7-1.9,3-3.1,4.1c-1.3,1-2.8,1.8-4.6,2.3c-1.8,0.5-3.9,0.7-6.3,0.7h-5.5
			c-2.5,0-4.5-0.2-6.1-0.7c-1.6-0.5-2.8-1.2-3.6-2.3c-0.8-1-1.3-2.4-1.4-4.1c-0.1-1.7,0.1-3.7,0.6-6.1l3.1-14.5
			c0.5-2.5,1.2-4.7,2-6.4c0.8-1.7,1.8-3.1,3.1-4.2c1.2-1.1,2.8-1.8,4.6-2.3c1.8-0.5,4-0.7,6.5-0.8H187.9z M181.6,323.3
			c-1.7,0-3.1,0.1-4.3,0.4c-1.2,0.3-2.2,0.7-3,1.4c-0.8,0.7-1.5,1.7-2,2.9c-0.5,1.2-1,2.9-1.4,4.9l-3.1,14.5c-0.4,2-0.6,3.6-0.5,4.8
			c0.1,1.2,0.4,2.1,1,2.7c0.6,0.6,1.4,1.1,2.4,1.2c1,0.2,2.3,0.3,3.8,0.3h5.5c1.5,0,2.8-0.1,3.9-0.3c1.1-0.2,2.1-0.6,3-1.2
			c0.8-0.6,1.6-1.5,2.1-2.7c0.6-1.2,1.1-2.8,1.5-4.8l3.1-14.5c0.4-2,0.7-3.6,0.7-4.8c0-1.3-0.2-2.3-0.7-3c-0.5-0.7-1.3-1.2-2.3-1.4
			c-1.1-0.3-2.5-0.4-4.2-0.4H181.6z"/>
		<path class="st1" d="M274.2,360.3h-7.5l-15-36.9h-0.1l-7.9,36.9h-4.6l8.6-40.7h7.6l14.9,37.2h0.1l7.9-37.2h4.6L274.2,360.3z"/>
		<path class="st1" d="M327.1,360.3h-4.6l8.6-40.7h4.6L327.1,360.3z"/>
		<path class="st1" d="M389.7,360.3h-4.6l7.8-36.6h-13.2l0.9-4.1h31l-0.9,4.1h-13.2L389.7,360.3z"/>
		<path class="st1" d="M473.6,319.2c2.5,0,4.6,0.3,6.2,0.8c1.6,0.5,2.8,1.2,3.6,2.3c0.8,1.1,1.2,2.5,1.3,4.2s-0.2,3.9-0.7,6.4
			l-3.1,14.5c-0.5,2.4-1.2,4.4-2,6.1c-0.8,1.7-1.9,3-3.1,4.1c-1.3,1-2.8,1.8-4.6,2.3c-1.8,0.5-3.9,0.7-6.3,0.7h-5.5
			c-2.5,0-4.5-0.2-6.1-0.7c-1.6-0.5-2.8-1.2-3.6-2.3c-0.8-1-1.3-2.4-1.4-4.1c-0.1-1.7,0.1-3.7,0.6-6.1l3.1-14.5
			c0.5-2.5,1.2-4.7,2-6.4c0.8-1.7,1.8-3.1,3.1-4.2c1.2-1.1,2.8-1.8,4.6-2.3c1.8-0.5,4-0.7,6.5-0.8H473.6z M467.2,323.3
			c-1.7,0-3.1,0.1-4.3,0.4c-1.2,0.3-2.2,0.7-3,1.4c-0.8,0.7-1.5,1.7-2,2.9c-0.5,1.2-1,2.9-1.4,4.9l-3.1,14.5c-0.4,2-0.6,3.6-0.5,4.8
			c0.1,1.2,0.4,2.1,1,2.7c0.6,0.6,1.4,1.1,2.4,1.2c1,0.2,2.3,0.3,3.8,0.3h5.5c1.5,0,2.8-0.1,3.9-0.3c1.1-0.2,2.1-0.6,3-1.2
			c0.8-0.6,1.6-1.5,2.1-2.7c0.6-1.2,1.1-2.8,1.5-4.8l3.1-14.5c0.4-2,0.7-3.6,0.7-4.8c0-1.3-0.2-2.3-0.7-3c-0.5-0.7-1.3-1.2-2.3-1.4
			c-1.1-0.3-2.5-0.4-4.2-0.4H467.2z"/>
		<path class="st1" d="M529.4,360.3h-4.6l8.6-40.7h18.8c2.2,0,4.1,0.2,5.6,0.5c1.5,0.3,2.7,1,3.6,1.8c0.9,0.9,1.4,2.1,1.5,3.6
			c0.2,1.5,0,3.4-0.5,5.8c-0.3,1.4-0.7,2.7-1.1,4c-0.4,1.2-0.9,2.3-1.6,3.3c-0.7,0.9-1.5,1.7-2.6,2.3c-1.1,0.6-2.5,1-4.1,1.2v0.1
			c2.3,0.2,3.8,0.9,4.6,2.1c0.8,1.2,0.9,3,0.4,5.2l-2.3,10.8H551l1.8-8.6c0.3-1.3,0.4-2.4,0.4-3.4c0-1-0.2-1.8-0.5-2.4
			c-0.4-0.6-1-1.1-1.8-1.4c-0.8-0.3-1.9-0.5-3.3-0.5h-14.8L529.4,360.3z M548,339.9c1.8,0,3.2-0.2,4.3-0.5c1.1-0.3,2-0.8,2.7-1.5
			c0.7-0.7,1.3-1.6,1.7-2.8c0.4-1.1,0.8-2.6,1.1-4.3c0.3-1.3,0.5-2.4,0.5-3.3c0-0.9-0.2-1.6-0.6-2.2c-0.4-0.6-1.1-1-2.1-1.2
			c-1-0.3-2.4-0.4-4.2-0.4h-14.2l-3.4,16.3H548z"/>
	</g>
	<path class="st1" d="M99.8,302.2c-6.6-1.1-12-3.3-16.3-6.5c-4.3-3.2-7.2-7.7-8.7-13.4c-1.5-5.7-1.3-13.2,0.6-22.5l7.2-34
		c1.9-9.3,4.9-16.8,8.9-22.5c4-5.7,8.8-10.2,14.4-13.4c5.6-3.2,11.9-5.4,19-6.5c7-1.1,14.6-1.7,22.8-1.7c8.1,0,15.5,0.6,22,1.7
		c6.6,1.1,12,3.3,16.2,6.5c4.2,3.2,7.1,7.7,8.6,13.4c1.5,5.7,1.3,13.2-0.6,22.5l-7.2,34c-1.9,9.3-4.9,16.8-8.8,22.5
		c-4,5.7-8.7,10.2-14.3,13.4c-5.6,3.2-11.9,5.4-19,6.5c-7,1.1-14.6,1.7-22.8,1.7C113.7,303.9,106.3,303.3,99.8,302.2z M138.4,275.5
		c2.9-0.4,5.4-1.2,7.5-2.6c2.1-1.3,3.8-3.3,5.1-5.9c1.3-2.6,2.5-6.2,3.4-10.7l5.8-27.1c1-4.5,1.3-8,1-10.6c-0.3-2.6-1.1-4.5-2.6-5.8
		c-1.5-1.3-3.6-2.2-6.4-2.6c-2.8-0.4-6.2-0.6-10.4-0.6c-4.2,0-7.7,0.2-10.7,0.6c-2.9,0.4-5.4,1.2-7.5,2.6c-2,1.3-3.7,3.3-5,5.8
		c-1.3,2.6-2.5,6.1-3.6,10.6l-5.8,27.1c-0.9,4.5-1.1,8-0.9,10.7c0.3,2.6,1.1,4.6,2.6,5.9c1.4,1.3,3.6,2.2,6.3,2.6
		c2.8,0.4,6.2,0.6,10.4,0.6C131.9,276,135.4,275.8,138.4,275.5z"/>
	<path class="st1" d="M192.1,302.9l25.5-120.2H278c7.5,0,13.6,0.8,18.5,2.5c4.9,1.7,8.5,4.2,11.1,7.8c2.5,3.5,3.9,8.1,4.2,13.7
		c0.3,5.6-0.4,12.3-2.1,20.1c-1.8,8.4-3.9,15.5-6.2,21.3c-2.4,5.8-5.4,10.4-9.2,14c-3.8,3.6-8.5,6.1-14.2,7.7
		c-5.7,1.5-12.7,2.3-21,2.3h-28.4l-6.6,30.8H192.1z M258.6,244.3c3.2-0.1,5.8-0.3,7.7-0.7c1.9-0.4,3.5-1.1,4.8-2.3
		c1.3-1.2,2.3-2.9,3.1-5.2c0.8-2.3,1.6-5.4,2.5-9.2c0.6-3.1,1-5.7,1.1-7.8c0.1-2.1-0.2-3.7-1-5c-0.7-1.2-2-2.1-3.8-2.6
		c-1.8-0.5-4.3-0.8-7.4-0.8h-22l-7.1,33.6H258.6z"/>
	<path class="st1" d="M354.3,231h51.3l-4.6,22.3h-51.3l-5,23.4h55.8l-5.6,26.3H307l25.5-120.2h86.7l-5.4,26.3h-54.6L354.3,231z"/>
	<path class="st1" d="M447.2,302.9h-32l25.5-120.2h54.2l14.9,92.3h1.3l17.6-92.3h32l-25.5,120.2h-54.6l-14.4-92.3h-1.3L447.2,302.9z
		"/>
	<path class="st0" d="M910.5,73.5c0-9-7.3-16.2-16.2-16.2H782.2c-8.9,0-16.2,7.3-16.2,16.2v44.8c0.1,0,0.3-0.1,0.4-0.1
		c0.3-0.1,0.6-0.1,0.8-0.2c1.5-0.6,3.1-1,4.7-1c1.1,0.1,2.1,0.3,3.2,0.4c0.4,0.1,0.7,0.3,1,0.4V73.4c0-3.3,2.6-5.9,5.9-5.9h112.2
		c3.1,0,5.7,2.4,5.9,5.5l0,12.4c2.3-0.8,4.8-1.2,7.3-1.3c1.2,0,2.3,0.1,3.3,0.4C910.7,77.7,910.5,73.5,910.5,73.5z M838.4,65.6
		c-2,0-3.7-1.7-3.7-3.7c0-2,1.7-3.7,3.7-3.7c2,0,3.7,1.7,3.7,3.7C842.1,63.9,840.5,65.6,838.4,65.6z"/>
	<g>
		<path class="st0" d="M603,246.8c-3.7-0.2-7.2-0.5-10.3-1c-3.2-0.5-6-1.4-8.4-2.5c-2.5-1.1-4.4-2.7-5.9-4.9
			c-1.5-2.1-2.4-4.9-2.8-8.4c-0.4-3.5,0-7.9,1.2-13.2c1.7-8,4-14.3,6.8-19c2.8-4.6,6.4-8.1,10.6-10.5c4.2-2.3,9.2-3.8,14.9-4.5
			c5.7-0.6,12.3-1,19.6-1c6.5,0,12.4,0.2,17.8,0.7c5.3,0.5,9.7,1.8,13.1,3.9c3.4,2.1,5.6,5.5,6.7,10.1c1,4.6,0.5,11-1.5,19.1h-13.6
			c1-5.2,1.4-9.3,1.2-12.3c-0.2-2.9-1.1-5.1-3-6.5c-1.8-1.4-4.6-2.2-8.4-2.6c-3.8-0.3-8.9-0.5-15.3-0.5c-6.6,0-12,0.3-16.1,0.8
			c-4.1,0.5-7.4,1.5-9.9,3c-2.5,1.4-4.3,3.5-5.5,6.1c-1.2,2.6-2.3,6-3.1,10.2c-1.2,5.8-1.4,10.1-0.6,13c0.7,2.9,2.3,4.9,4.8,6.2
			c2.5,1.2,5.8,1.9,9.9,2.1c4.2,0.2,9,0.3,14.6,0.4c7,0.4,13.2,0.9,18.5,1.4c5.3,0.5,9.5,1.7,12.7,3.8c3.1,2,5.2,5.2,6,9.5
			c0.9,4.3,0.4,10.6-1.3,18.7c-1.8,8.5-4.2,15.2-7.2,19.9c-3,4.7-6.6,8.2-11,10.4c-4.3,2.2-9.4,3.6-15.3,4.1
			c-5.9,0.5-12.6,0.7-20.2,0.7c-7.7,0-14.3-0.4-20-1.1c-5.6-0.7-10-2.4-13.1-5c-3.2-2.6-5-6.5-5.5-11.6c-0.5-5.1,0.4-12,2.9-20.7
			h13.6c-1.5,6.6-2.2,11.8-2.2,15.4c0,3.5,0.9,6.1,2.8,7.8c1.9,1.7,4.8,2.6,8.7,2.9c3.9,0.3,9.1,0.4,15.5,0.4c6.4,0,11.7-0.1,16-0.4
			c4.3-0.3,7.8-1.1,10.6-2.6c2.8-1.4,5-3.8,6.7-7c1.7-3.2,3.1-7.7,4.4-13.6c1.2-5.8,1.4-10,0.7-12.7c-0.7-2.7-2.3-4.6-4.7-5.6
			c-2.5-1-5.7-1.6-9.7-1.7c-4-0.1-8.7-0.4-14-0.8C610.6,247.2,606.8,246.9,603,246.8z"/>
		<path class="st0" d="M688.4,182.8h61.2c5.8,0,10.3,0.9,13.7,2.8c3.4,1.9,5.8,4.4,7.2,7.7c1.4,3.3,2.1,7.1,1.9,11.5
			c-0.2,4.4-0.8,9.2-1.8,14.3c-0.5,2.7-1.4,6.1-2.6,10.3c-1.2,4.2-3.2,8.3-5.8,12.3c-2.7,4-6.3,7.3-10.9,10.2
			c-4.6,2.8-10.5,4.2-17.8,4.2h-46.9l-9.9,46.8H663L688.4,182.8z M699.5,194.8l-10.4,49.4h35.2c4.5,0,8.5-0.1,11.9-0.3
			c3.5-0.2,6.5-1,9.1-2.5c2.6-1.4,4.8-3.7,6.6-6.9c1.8-3.1,3.4-7.7,4.6-13.5c1.2-5.8,1.8-10.4,1.9-13.8c0.1-3.4-0.4-6.1-1.6-7.9
			c-1.2-1.9-3.1-3.1-5.7-3.6c-2.6-0.5-6-0.8-10.2-0.8H699.5z"/>
		<path class="st0" d="M793.9,235.6h60.9l-2.4,11.2h-60.9l-9.3,44.1h63.6l-2.6,12H766l25.5-120.2h77.2l-2.6,12h-63.6L793.9,235.6z"
			/>
		<path class="st0" d="M883.6,235.6h60.9l-2.4,11.2h-60.9l-9.3,44.1h63.6l-2.6,12h-77.2l25.5-120.2h77.2l-2.6,12h-63.6L883.6,235.6z
			"/>
		<path class="st0" d="M974.6,182.8h58.5c2.5,0,5.2,0.1,8.1,0.3c2.9,0.2,5.8,0.8,8.7,1.8c2.8,1,5.5,2.4,7.9,4.4c2.5,2,4.5,4.7,6,8.1
			c1.5,3.4,2.5,7.7,2.7,12.9c0.3,5.2-0.4,11.5-2,18.8l-6.1,28.7c-0.4,2-1.1,4.5-1.9,7.5c-0.9,3-2,6.1-3.5,9.5
			c-1.5,3.3-3.4,6.7-5.8,10c-2.3,3.4-5.2,6.4-8.6,9.1c-3.4,2.7-7.3,4.9-11.9,6.6c-4.6,1.7-9.9,2.5-15.9,2.5h-61.7L974.6,182.8z
			 M1010.2,290.9c6,0,10.9-0.9,14.9-2.6c4-1.7,7.2-4.1,9.9-7.2c2.6-3.1,4.7-6.8,6.2-11.2c1.5-4.4,2.9-9.2,4.1-14.6l6.7-31.6
			c0.3-1.7,0.6-4.2,0.8-7.4c0.2-3.2-0.2-6.4-1.3-9.6c-1.1-3.2-3-6-5.8-8.4c-2.8-2.4-7.1-3.6-12.9-3.6h-47.1l-20.3,96.1H1010.2z"/>
	</g>
</g>
</svg>
