<?xml version="1.0" encoding="UTF-8" standalone="no"?>
<!-- Created with Inkscape (http://www.inkscape.org/) -->

<svg
   xmlns:dc="http://purl.org/dc/elements/1.1/"
   xmlns:cc="http://creativecommons.org/ns#"
   xmlns:rdf="http://www.w3.org/1999/02/22-rdf-syntax-ns#"
   xmlns:svg="http://www.w3.org/2000/svg"
   xmlns="http://www.w3.org/2000/svg"
   xmlns:sodipodi="http://sodipodi.sourceforge.net/DTD/sodipodi-0.dtd"
   xmlns:inkscape="http://www.inkscape.org/namespaces/inkscape"
   viewBox="0 0 55.912111 57.835941"
   id="svg2"
   version="1.1"
   inkscape:version="0.91 r13725"
   sodipodi:docname="OpenSpeedMonitor_small.svg">
  <defs
     id="defs4" />
  <sodipodi:namedview
     id="base"
     pagecolor="#ffffff"
     bordercolor="#666666"
     borderopacity="1.0"
     inkscape:pageopacity="0.0"
     inkscape:pageshadow="2"
     inkscape:zoom="6.1804845"
     inkscape:cx="12.475039"
     inkscape:cy="35.975368"
     inkscape:document-units="px"
     inkscape:current-layer="layer1"
     showgrid="false"
     inkscape:window-width="1600"
     inkscape:window-height="835"
     inkscape:window-x="0"
     inkscape:window-y="0"
     inkscape:window-maximized="1"
     fit-margin-top="0"
     fit-margin-left="0"
     fit-margin-right="0"
     fit-margin-bottom="0" />
  <metadata
     id="metadata7">
    <rdf:RDF>
      <cc:Work
         rdf:about="">
        <dc:format>image/svg+xml</dc:format>
        <dc:type
           rdf:resource="http://purl.org/dc/dcmitype/StillImage" />
        <dc:title></dc:title>
      </cc:Work>
    </rdf:RDF>
  </metadata>
  <g
     inkscape:label="Ebene 1"
     inkscape:groupmode="layer"
     id="layer1"
     transform="translate(-327.76172,-393.89648)">
    <path
       style="color:#000000;font-style:normal;font-variant:normal;font-weight:normal;font-stretch:normal;font-size:medium;line-height:normal;font-family:sans-serif;text-indent:0;text-align:start;text-decoration:none;text-decoration-line:none;text-decoration-style:solid;text-decoration-color:#000000;letter-spacing:normal;word-spacing:normal;text-transform:none;direction:ltr;block-progression:tb;writing-mode:lr-tb;baseline-shift:baseline;text-anchor:start;white-space:normal;clip-rule:nonzero;display:inline;overflow:visible;visibility:visible;opacity:1;isolation:auto;mix-blend-mode:normal;color-interpolation:sRGB;color-interpolation-filters:linearRGB;solid-color:#000000;solid-opacity:1;fill:#a8268d;fill-opacity:1;fill-rule:nonzero;stroke:none;stroke-width:1.68931091;stroke-linecap:butt;stroke-linejoin:miter;stroke-miterlimit:4;stroke-dasharray:none;stroke-dashoffset:0;stroke-opacity:1;color-rendering:auto;image-rendering:auto;shape-rendering:auto;text-rendering:auto;enable-background:accumulate"
       d="m 332.63672,393.89648 c -2.68681,0 -4.875,2.19015 -4.875,4.87696 l 0,36.73633 c 0,2.6868 2.18819,4.875 4.875,4.875 l 21.67383,0 c 2.68681,0 4.875,-2.1882 4.875,-4.875 l 0,-36.73633 c 0,-2.68681 -2.18819,-4.87696 -4.875,-4.87696 l -21.67383,0 z m 10.83789,0.27735 c 0.30304,0 0.54687,0.24383 0.54687,0.54687 0,0.30304 -0.24383,0.54688 -0.54687,0.54688 -0.30304,0 -0.54688,-0.24384 -0.54688,-0.54688 0,-0.30304 0.24384,-0.54687 0.54688,-0.54687 z m -10.83789,1.41211 21.67383,0 c 1.78015,0 3.18554,1.40735 3.18554,3.1875 l 0,36.73633 c 0,1.78015 -1.40539,3.18554 -3.18554,3.18554 l -21.67383,0 c -1.78015,0 -3.18555,-1.40539 -3.18555,-3.18554 l 0,-36.73633 c 0,-1.78016 1.4054,-3.1875 3.18555,-3.1875 z"
       id="rect5245"
       inkscape:connector-curvature="0" />
    <path
       style="color:#000000;font-style:normal;font-variant:normal;font-weight:normal;font-stretch:normal;font-size:medium;line-height:normal;font-family:sans-serif;text-indent:0;text-align:start;text-decoration:none;text-decoration-line:none;text-decoration-style:solid;text-decoration-color:#000000;letter-spacing:normal;word-spacing:normal;text-transform:none;direction:ltr;block-progression:tb;writing-mode:lr-tb;baseline-shift:baseline;text-anchor:start;white-space:normal;clip-rule:nonzero;display:inline;overflow:visible;visibility:visible;opacity:1;isolation:auto;mix-blend-mode:normal;color-interpolation:sRGB;color-interpolation-filters:linearRGB;solid-color:#000000;solid-opacity:1;fill:#eeeeee;fill-opacity:1;fill-rule:nonzero;stroke:none;stroke-width:1.96938872;stroke-linecap:butt;stroke-linejoin:miter;stroke-miterlimit:4;stroke-dasharray:none;stroke-dashoffset:0;stroke-opacity:1;color-rendering:auto;image-rendering:auto;shape-rendering:auto;text-rendering:auto;enable-background:accumulate"
       d="m 352.19727,398.22656 c -3.09788,0 -5.62305,2.52518 -5.62305,5.62305 l 0,42.26172 c 0,3.09788 2.52517,5.62109 5.62305,5.62109 l 25.85351,0 c 3.09788,0 5.62305,-2.52321 5.62305,-5.62109 l 0,-42.26172 c 0,-3.09787 -2.52517,-5.62305 -5.62305,-5.62305 l -25.85351,0 z m 8.98437,0.44336 7.88477,0 c 0.30295,0 0.54687,0.24393 0.54687,0.54688 0,0.30295 -0.24392,0.54687 -0.54687,0.54687 l -7.88477,0 c -0.30295,0 -0.54687,-0.24392 -0.54687,-0.54687 0,-0.30295 0.24392,-0.54688 0.54687,-0.54688 z m -8.98437,1.52735 25.85351,0 c 2.0409,0 3.6543,1.61145 3.6543,3.65234 l 0,42.26172 c 0,2.0409 -1.6134,3.65234 -3.6543,3.65234 l -25.85351,0 c -2.04091,0 -3.65235,-1.61144 -3.65235,-3.65234 l 0,-42.26172 c 0,-2.04089 1.61144,-3.65234 3.65235,-3.65234 z m 12.92773,49.97656 a 0.54699999,0.54699999 0 0 1 0.54688,0.54687 0.54699999,0.54699999 0 0 1 -0.54688,0.54883 0.54699999,0.54699999 0 0 1 -0.54688,-0.54883 0.54699999,0.54699999 0 0 1 0.54688,-0.54687 z"
       id="rect5247"
       inkscape:connector-curvature="0" />
  </g>
</svg>
